<svg id="Layer_1" data-name="Layer 1" xmlns="http://www.w3.org/2000/svg" viewBox="0 0 100 100"><title>crown-full</title><path d="M12,36.3l6,21.94,6,21.94s9.26-3.38,24-3.38,24,3.38,24,3.38l7.19-21.94L86.25,36.3l-9.09,8.83L68.07,54l-3.59-12.2-3.59-12.2L54.4,41.36,47.92,53.17,42.64,41.36,37.36,29.54l-3.59,12.2L30.17,54l-9.09-8.83Z" style="fill:#d80"/><path d="M60.88,29.54l3.59,12.2L68.07,54l9.09-8.83,9.09-8.83L79.07,58.24,71.88,80.18s-9.26-3.38-24-3.38-24,3.38-24,3.38L18,58.24,12,36.3l9.09,8.83L30.17,54l3.59-12.2,3.59-12.2,5.28,11.82,5.28,11.82L54.4,41.36l6.48-11.82M36.16,11.7,31.42,27.8,27.83,40l-.7,2.37-1.74-1.69L16.3,31.86.05,16.08,6,37.93l6,21.94,6,21.94,1.77,6.49L26.09,86c.06,0,8.57-3,21.84-3s21.77,3,21.86,3l6,2.13,2-6,7.19-21.94,7.19-21.94,7.81-23.85-18,17.48-9.09,8.83-1.74,1.69L70.41,40,66.82,27.8,62.61,13.52,55.45,26.57,49,38.38l-.49.89-.2-.44L43,27,36.16,11.7Z" style="fill:#fff"/></svg>